<svg width="800" height="802" viewBox="0 0 800 802" fill="none" xmlns="http://www.w3.org/2000/svg">
<g filter="url(#filter0_d_0_1)">
<mask id="mask0_0_1" style="mask-type:luminance" maskUnits="userSpaceOnUse" x="240" y="201" width="320" height="593">
<path d="M240.625 201.562H559.375V793.594H240.625V201.562Z" fill="white"/>
</mask>
<g mask="url(#mask0_0_1)">
<path d="M529.766 506.063C530.272 506.093 530.773 506.105 531.273 506.105C544.585 506.105 555.761 495.705 556.548 482.241C557.83 460.269 558.416 440.102 558.422 421.554C558.294 325.943 543.023 273.03 522.197 241.21C511.797 225.415 499.62 215.282 488.372 209.672C477.837 204.356 468.547 203.05 462.792 202.922C462.267 202.885 461.742 202.843 461.199 202.843L338.812 202.849C338.275 202.849 337.75 202.898 337.225 202.928C331.463 203.056 322.18 204.356 311.633 209.679C294.598 218.126 276.233 236.607 263.378 269.358C250.359 302.238 241.625 349.779 241.589 421.555C241.589 440.104 242.187 460.275 243.469 482.243C244.256 495.713 255.426 506.107 268.75 506.107C269.244 506.107 269.745 506.088 270.258 506.064C284.229 505.24 294.886 493.253 294.073 479.281C292.84 458.206 292.273 439.022 292.273 421.555C292.169 344.851 303.344 301.761 314.331 279.27V754.442C314.331 776.08 331.873 793.608 353.496 793.608C375.127 793.608 392.668 776.078 392.668 754.442V468.473H407.353V754.442C407.353 776.08 424.895 793.608 446.519 793.608C468.15 793.608 485.691 776.078 485.691 754.442V383.989L485.678 279.387C487.552 283.239 489.444 287.658 491.312 292.815C500.241 317.559 507.754 358.165 507.724 421.545C507.724 439.014 507.169 458.203 505.936 479.278C505.118 493.249 515.793 505.242 529.764 506.054L529.766 506.063Z" fill="#173BDB"/>
</g>
<path d="M316.047 178.172H483.953V165.501H328.722V10.2759H316.051L316.047 178.172Z" fill="#173BDB"/>
<mask id="mask1_0_1" style="mask-type:luminance" maskUnits="userSpaceOnUse" x="345" y="6" width="149" height="140">
<path d="M345.312 6.39062H493.75V145.306H345.312V6.39062Z" fill="white"/>
</mask>
<g mask="url(#mask1_0_1)">
<path d="M352.031 145L381.975 97.0812L419.92 122.375L476.372 37.6828L483.953 53.1125L493.431 6.39685L453.953 33.1125L471.105 34.1745L418.156 113.587L380.064 88.1964L346.653 141.639L352.031 145Z" fill="#173BDB"/>
</g>
</g>
<defs>
<filter id="filter0_d_0_1" x="-4" y="0" width="808" height="808" filterUnits="userSpaceOnUse" color-interpolation-filters="sRGB">
<feFlood flood-opacity="0" result="BackgroundImageFix"/>
<feColorMatrix in="SourceAlpha" type="matrix" values="0 0 0 0 0 0 0 0 0 0 0 0 0 0 0 0 0 0 127 0" result="hardAlpha"/>
<feOffset dy="4"/>
<feGaussianBlur stdDeviation="2"/>
<feComposite in2="hardAlpha" operator="out"/>
<feColorMatrix type="matrix" values="0 0 0 0 0 0 0 0 0 0 0 0 0 0 0 0 0 0 0.25 0"/>
<feBlend mode="normal" in2="BackgroundImageFix" result="effect1_dropShadow_0_1"/>
<feBlend mode="normal" in="SourceGraphic" in2="effect1_dropShadow_0_1" result="shape"/>
</filter>
</defs>
</svg>
